<svg xmlns="http://www.w3.org/2000/svg" viewBox="0 0 512 512" width="512" height="512">
  <!-- Concept 2: "Aperture" — iris blades around play, film sprocket ring -->
  <defs>
    <radialGradient id="bg2" cx="40%" cy="35%" r="70%">
      <stop offset="0%" stop-color="#0f172a"/>
      <stop offset="100%" stop-color="#020617"/>
    </radialGradient>
    <linearGradient id="ring2" x1="0%" y1="0%" x2="100%" y2="100%">
      <stop offset="0%" stop-color="#c084fc"/>
      <stop offset="50%" stop-color="#38bdf8"/>
      <stop offset="100%" stop-color="#c084fc"/>
    </linearGradient>
    <linearGradient id="blade2" x1="0%" y1="0%" x2="100%" y2="100%">
      <stop offset="0%" stop-color="#1e3a5f" stop-opacity="0.9"/>
      <stop offset="100%" stop-color="#0f2040" stop-opacity="0.7"/>
    </linearGradient>
    <radialGradient id="dot2" cx="38%" cy="35%" r="65%">
      <stop offset="0%" stop-color="#c084fc"/>
      <stop offset="55%" stop-color="#38bdf8"/>
      <stop offset="100%" stop-color="#0ea5e9"/>
    </radialGradient>
    <filter id="glow2">
      <feGaussianBlur stdDeviation="4" result="blur"/>
      <feMerge><feMergeNode in="blur"/><feMergeNode in="SourceGraphic"/></feMerge>
    </filter>
  </defs>

  <!-- Background -->
  <rect width="512" height="512" rx="96" fill="url(#bg2)"/>

  <!-- Outer ring (gradient cyan-purple) -->
  <circle cx="256" cy="256" r="200" fill="none" stroke="url(#ring2)" stroke-width="8"/>

  <!-- Film sprocket holes around the ring (24 small rects) -->
  <g opacity="0.8">
    <rect x="250" y="44"  width="12" height="20" rx="3" fill="#c084fc"/>
    <rect x="250" y="448" width="12" height="20" rx="3" fill="#c084fc"/>
    <rect x="44"  y="250" width="20" height="12" rx="3" fill="#c084fc"/>
    <rect x="448" y="250" width="20" height="12" rx="3" fill="#c084fc"/>

    <!-- Diagonal sprockets -->
    <rect x="393" y="107" width="12" height="20" rx="3" fill="#38bdf8" transform="rotate(45 399 117)"/>
    <rect x="107" y="107" width="12" height="20" rx="3" fill="#38bdf8" transform="rotate(-45 113 117)"/>
    <rect x="393" y="385" width="12" height="20" rx="3" fill="#38bdf8" transform="rotate(-45 399 395)"/>
    <rect x="107" y="385" width="12" height="20" rx="3" fill="#38bdf8" transform="rotate(45 113 395)"/>
  </g>

  <!-- Secondary inner ring -->
  <circle cx="256" cy="256" r="172" fill="none" stroke="#38bdf8" stroke-width="2" opacity="0.3"/>

  <!-- Aperture blades (6 overlapping parallelograms) -->
  <g opacity="0.6">
    <ellipse cx="256" cy="256" rx="50" ry="120" fill="url(#blade2)" transform="rotate(0 256 256)"/>
    <ellipse cx="256" cy="256" rx="50" ry="120" fill="url(#blade2)" transform="rotate(60 256 256)"/>
    <ellipse cx="256" cy="256" rx="50" ry="120" fill="url(#blade2)" transform="rotate(120 256 256)"/>
  </g>

  <!-- Center dark circle (above blades) -->
  <circle cx="256" cy="256" r="110" fill="#020617"/>
  <circle cx="256" cy="256" r="110" fill="none" stroke="url(#ring2)" stroke-width="3"/>

  <!-- Recording dot with gradient + glow -->
  <circle cx="256" cy="256" r="52" fill="url(#dot2)" filter="url(#glow2)"/>
</svg>
